<svg xmlns="http://www.w3.org/2000/svg" xmlns:xlink="http://www.w3.org/1999/xlink" width="50" zoomAndPan="magnify" viewBox="0 0 37.5 37.499999" height="50" preserveAspectRatio="xMidYMid meet" version="1.0"><defs><clipPath id="3aeb389102"><path d="M 3 1.664062 L 37 1.664062 L 37 21 L 3 21 Z M 3 1.664062 " clip-rule="nonzero"/></clipPath><clipPath id="40b1eaf477"><path d="M 21 16 L 34 16 L 34 35.710938 L 21 35.710938 Z M 21 16 " clip-rule="nonzero"/></clipPath><clipPath id="09522c9f44"><path d="M 3 16 L 16 16 L 16 35.710938 L 3 35.710938 Z M 3 16 " clip-rule="nonzero"/></clipPath><clipPath id="4a9d0af291"><path d="M 13 21 L 24 21 L 24 35.710938 L 13 35.710938 Z M 13 21 " clip-rule="nonzero"/></clipPath></defs><g clip-path="url(#3aeb389102)"><path fill="#28722c" d="M 36.167969 20.871094 C 35.972656 20.871094 35.785156 20.796875 35.632812 20.644531 L 32.445312 17.453125 L 18.5 3.503906 L 4.582031 17.488281 C 4.285156 17.785156 3.808594 17.785156 3.511719 17.488281 C 3.214844 17.191406 3.214844 16.714844 3.511719 16.417969 L 17.964844 1.90625 C 18.109375 1.761719 18.296875 1.683594 18.5 1.683594 C 18.703125 1.683594 18.890625 1.761719 19.035156 1.90625 L 33.515625 16.390625 L 36.710938 19.582031 C 37.007812 19.878906 37.007812 20.355469 36.710938 20.652344 C 36.558594 20.796875 36.363281 20.871094 36.167969 20.871094 Z M 36.167969 20.871094 " fill-opacity="1" fill-rule="nonzero"/></g><path fill="#28722c" d="M 0.832031 20.941406 C 0.636719 20.941406 0.449219 20.871094 0.296875 20.726562 C 0 20.429688 0 19.953125 0.289062 19.65625 L 3.511719 16.417969 C 3.808594 16.121094 4.285156 16.121094 4.582031 16.417969 C 4.878906 16.714844 4.878906 17.191406 4.582031 17.488281 L 1.359375 20.726562 C 1.214844 20.871094 1.019531 20.941406 0.832031 20.941406 Z M 0.832031 20.941406 " fill-opacity="1" fill-rule="nonzero"/><g clip-path="url(#40b1eaf477)"><path fill="#28722c" d="M 32.953125 35.316406 L 22.53125 35.316406 C 22.113281 35.316406 21.773438 34.976562 21.773438 34.558594 C 21.773438 34.136719 22.113281 33.796875 22.53125 33.796875 L 32.195312 33.796875 L 32.195312 16.953125 C 32.195312 16.535156 32.535156 16.195312 32.953125 16.195312 C 33.371094 16.195312 33.710938 16.535156 33.710938 16.953125 L 33.710938 34.5625 C 33.703125 34.976562 33.363281 35.316406 32.953125 35.316406 Z M 32.953125 35.316406 " fill-opacity="1" fill-rule="nonzero"/></g><g clip-path="url(#09522c9f44)"><path fill="#28722c" d="M 14.46875 35.316406 L 4.046875 35.316406 C 3.628906 35.316406 3.289062 34.976562 3.289062 34.558594 L 3.289062 16.953125 C 3.289062 16.535156 3.628906 16.195312 4.046875 16.195312 C 4.464844 16.195312 4.804688 16.535156 4.804688 16.945312 L 4.804688 33.796875 L 14.46875 33.796875 C 14.886719 33.796875 15.226562 34.136719 15.226562 34.558594 C 15.226562 34.976562 14.886719 35.316406 14.46875 35.316406 Z M 14.46875 35.316406 " fill-opacity="1" fill-rule="nonzero"/></g><g clip-path="url(#4a9d0af291)"><path fill="#28722c" d="M 22.53125 35.316406 C 22.113281 35.316406 21.773438 34.976562 21.773438 34.558594 L 21.773438 23.117188 L 15.21875 23.117188 L 15.21875 34.5625 C 15.21875 34.984375 14.878906 35.324219 14.460938 35.324219 C 14.039062 35.324219 13.703125 34.984375 13.703125 34.5625 L 13.703125 22.359375 C 13.703125 21.941406 14.039062 21.601562 14.460938 21.601562 L 22.523438 21.601562 C 22.945312 21.601562 23.285156 21.941406 23.285156 22.359375 L 23.285156 34.558594 C 23.285156 34.976562 22.949219 35.316406 22.53125 35.316406 Z M 22.53125 35.316406 " fill-opacity="1" fill-rule="nonzero"/></g><path fill="#28722c" d="M 31.289062 15.96875 C 31.09375 15.96875 30.898438 15.890625 30.753906 15.746094 L 27.011719 12.003906 C 26.867188 11.859375 26.789062 11.671875 26.789062 11.46875 L 26.789062 6.53125 C 26.789062 6.113281 27.128906 5.773438 27.546875 5.773438 L 31.289062 5.773438 C 31.710938 5.773438 32.050781 6.113281 32.050781 6.53125 L 32.050781 15.210938 C 32.050781 15.515625 31.867188 15.789062 31.578125 15.914062 C 31.484375 15.949219 31.382812 15.96875 31.289062 15.96875 Z M 28.304688 11.164062 L 30.53125 13.390625 L 30.53125 7.292969 L 28.304688 7.292969 Z M 28.304688 11.164062 " fill-opacity="1" fill-rule="nonzero"/></svg>